PathFileType	4	(X/Y/Z)	W14_1_OpenSim.trc																																																																																																																						
DataRate	CameraRate	NumFrames	NumMarkers	Units	OrigDataRate	OrigDataStartFrame	OrigNumFrames																																																																																																																		
100	100	6	40	mm	100	2626	3000																																																																																																																		
Frame#	Time	R.ASIS			R.PSIS			S2			L.PSIS			L.ASIS			R.TH1			R.TH2			R.TH3			R.MKnee			R.Knee			R.SH1			R.SH2			R.SH3			R.SH4			R.Ankle			R.MAnkle			R.Heel			R.MT5			R.MT1			L.TH1			L.TH2			L.TH3			L.TH4			L.MKnee			L.Knee			L.SH1			L.SH2			L.SH3			L.Ankle			L.MAnkle			L.Heel			L.MT5			L.MT1			R.Acr			L.Acr			C7			T10			Clav			Sternum			R.Back		
		X1	Y1	Z1	X2	Y2	Z2	X3	Y3	Z3	X4	Y4	Z4	X5	Y5	Z5	X6	Y6	Z6	X7	Y7	Z7	X8	Y8	Z8	X9	Y9	Z9	X10	Y10	Z10	X11	Y11	Z11	X12	Y12	Z12	X13	Y13	Z13	X14	Y14	Z14	X15	Y15	Z15	X16	Y16	Z16	X17	Y17	Z17	X18	Y18	Z18	X19	Y19	Z19	X20	Y20	Z20	X21	Y21	Z21	X22	Y22	Z22	X23	Y23	Z23	X24	Y24	Z24	X25	Y25	Z25	X26	Y26	Z26	X27	Y27	Z27	X28	Y28	Z28	X29	Y29	Z29	X30	Y30	Z30	X31	Y31	Z31	X32	Y32	Z32	X33	Y33	Z33	X34	Y34	Z34	X35	Y35	Z35	X36	Y36	Z36	X37	Y37	Z37	X38	Y38	Z38	X39	Y39	Z39	X40	Y40	Z40
2626	26.25	1057.5101	1059.7101	-433.6865	866.9835	1062.6854	-525.9069	859.2634	1060.781	-571.2125	865.6439	1069.5781	-620.8867	1043.4551	1065.6728	-726.7111	1102.5424	744.5968	-400.9607	1025.8645	715.6872	-396.7234	1065.5272	612.848	-398.6605	1131.3749	501.4959	-513.502	1110.4403	512.5873	-395.6295	1006.8449	390.0406	-395.7046	927.3278	311.7189	-413.2759	950.6755	450.6897	-402.2533	870.869	369.7192	-409.5829	764.9204	255.8816	-418.6575	812.9158	230.6663	-503.5727	709.4756	279.5324	-487.0305	790.4149	140.9651	-378.8076	833.4511	98.6201	-458.502	1079.6251	771.26	-744.3038	1088.978	663.3568	-731.6521	996.5693	759.2902	-751.5626	1009.7723	651.7986	-732.1736	1081.736	512.8245	-604.7321	1076.8914	517.2985	-715.3205	1071.3087	381.7028	-730.3182	990.0908	391.3402	-734.8909	979.3952	282.3264	-727.0651	1008.0715	81.1776	-720.2453	1041.2463	92.5905	-622.6538	944.7291	42.099	-661.9599	1115.2644	32.1526	-738.8159	1158.092	44.9713	-640.7035	1019.898	1468.5	-428.4877	973.5393	1448.5305	-749.5224	941.5475	1498.8232	-587.1949	901.7622	1173.9329	-568.7147	1080.63	1404.465	-597.0842	1106.2053	1260.7369	-584.176	870.24	1407.6963	-491.1301
2627	26.26	1056.0161	1062.8248	-434.7579	865.2138	1065.1532	-526.4275	857.6743	1063.0082	-571.6656	863.9521	1071.693	-621.3686	1041.7473	1067.348	-727.5695	1105.8179	750.5684	-399.897	1029.7712	719.8282	-396.4678	1071.9165	617.9965	-397.9312	1141.6221	507.9953	-512.3681	1119.5187	518.4099	-394.7387	1019.8499	392.361	-395.635	943.2666	311.4375	-413.9267	961.7781	451.0788	-403.1392	884.7282	367.5328	-411.0123	783.0479	249.8374	-420.6019	832.4598	226.5681	-505.2569	726.8985	270.9265	-489.4089	813.2062	136.2118	-380.3829	858.5839	95.7233	-459.7946	1073.5665	771.329	-745.1162	1080.791	663.2264	-732.6666	990.3687	761.0541	-752.5155	1001.4111	653.2978	-733.1261	1070.6785	512.7921	-605.7233	1065.1744	517.3727	-716.455	1058.4005	381.8666	-731.2598	977.1149	392.0282	-735.3691	965.7613	283.0944	-727.4492	994.223	81.1341	-720.2142	1027.4141	92.7924	-622.8885	930.7168	42.4739	-662.101	1101.2959	32.1029	-738.8176	1144.0796	44.985	-640.8451	1017.2421	1470.385	-428.6074	973.6282	1451.3166	-750.0157	940.377	1501.0632	-587.946	900.199	1176.2581	-570.1988	1079.2103	1406.7363	-597.0433	1104.7018	1263.1202	-584.4025	868.2603	1409.807	-492.9056
2628	26.27	1054.5618	1065.4548	-435.7949	863.4831	1067.1235	-526.6563	856.0031	1064.7848	-571.8317	862.1213	1073.3851	-621.5648	1039.829	1068.7474	-728.4429	1108.851	756.2389	-398.8228	1033.4337	723.7895	-395.9984	1077.8478	622.9546	-397.0963	1151.0179	514.2783	-511.2092	1127.9757	523.9898	-393.8344	1032.683	394.1173	-395.437	959.4218	310.4392	-414.3348	972.5635	450.6193	-403.6337	898.6924	364.3	-412.0447	801.8021	242.5489	-422.0803	852.592	221.4474	-506.4851	745.0233	260.9038	-491.3182	836.7995	130.4907	-381.5263	884.5584	92.0643	-460.6219	1067.2843	771.2787	-745.8944	1072.428	663.0242	-733.6182	983.9905	762.6829	-753.3671	992.9213	654.7092	-733.9315	1059.6202	512.7083	-606.6713	1053.3355	517.4567	-717.5259	1045.4388	382.0249	-732.1212	964.0567	392.7151	-735.7565	952.127	283.8402	-727.7325	980.3398	81.1149	-720.1589	1013.6125	92.9751	-623.076	916.673	42.8517	-662.232	1087.3166	32.0749	-738.8072	1130.0925	44.9805	-640.9687	1014.6228	1471.9773	-428.6684	973.702	1453.8373	-750.4062	939.1894	1503.0148	-588.6036	898.6639	1178.2744	-571.545	1077.7745	1408.7263	-596.949	1103.1943	1265.2081	-584.6118	866.305	1411.6414	-494.5713
2629	26.28	1053.1771	1067.5891	-436.8023	861.8542	1068.5939	-526.5956	854.2689	1066.1224	-571.72	860.1742	1074.6604	-621.4856	1037.7071	1069.8481	-729.3314	1111.6408	761.5316	-397.8006	1036.8512	727.4908	-395.3401	1083.335	627.629	-396.1959	1159.514	520.2429	-510.1067	1135.7902	529.2525	-392.9755	1045.3308	395.3401	-395.1522	975.772	308.8012	-414.51	983.0501	449.329	-403.7752	912.7826	360.0983	-412.6838	821.2022	234.1646	-423.0536	873.2908	215.4365	-507.2273	763.8644	249.5821	-492.6747	861.2553	124.008	-382.175	911.3463	87.8493	-460.9416	1060.8226	771.1012	-746.6037	1063.9365	662.7437	-734.4691	977.4658	764.1569	-754.0927	984.3415	656.0179	-734.5768	1048.5885	512.5416	-607.5486	1041.4473	517.5325	-718.4951	1032.4985	382.1652	-732.8887	951.0013	393.3855	-736.0797	938.5615	284.5523	-727.9407	966.4238	81.1207	-720.0942	999.8273	93.1453	-623.22	902.6133	43.2117	-662.3438	1073.3101	32.0749	-738.8183	1116.132	44.9622	-641.0779	1012.0593	1473.2346	-428.6784	973.7507	1456.0485	-750.7041	937.9998	1504.656	-589.1722	897.1627	1179.9565	-572.7535	1076.3456	1410.3956	-596.7995	1101.6874	1266.9495	-584.7912	864.3758	1413.1715	-496.1255
2630	26.29	1051.8821	1069.2471	-437.7795	860.3518	1069.6052	-526.2778	852.4949	1067.058	-571.3629	858.1459	1075.5457	-621.1637	1035.4015	1070.6312	-730.2248	1114.1844	766.3769	-396.8898	1040.0222	730.87	-394.5263	1088.3845	631.9437	-395.2677	1167.082	525.7959	-509.1406	1142.9421	534.1293	-392.2209	1057.7911	396.065	-394.7983	992.3005	306.6046	-414.4613	993.2646	447.233	-403.605	927.0221	355.0163	-412.9347	841.275	224.8268	-423.4857	894.546	208.662	-507.4531	783.4551	237.0951	-493.4019	886.6222	116.9571	-382.274	938.9214	83.2748	-460.7213	1054.2422	770.7919	-747.2141	1055.3718	662.3785	-735.1896	970.8386	765.4618	-754.684	975.7191	657.2117	-735.0702	1037.598	512.2708	-608.3302	1029.573	517.5815	-719.3371	1019.6335	382.2769	-733.5595	938.0264	394.0249	-736.3493	925.1061	285.2257	-728.0913	952.4866	81.1484	-720.0333	986.0433	93.3052	-623.3273	888.5689	43.5286	-662.4253	1059.2695	32.1038	-738.8881	1102.1984	44.943	-641.1793	1009.5668	1474.1251	-428.6421	973.7634	1457.9148	-750.9198	936.8217	1505.973	-589.6569	895.696	1181.2936	-573.8268	1074.9415	1411.7109	-596.5951	1100.1867	1268.3052	-584.9274	862.4762	1414.3758	-497.5661
2631	26.3	1050.6832	1070.4658	-438.7219	858.963	1070.227	-525.7564	850.7075	1067.6423	-570.8102	856.0785	1076.0824	-620.6489	1032.9431	1071.0814	-731.1032	1116.4824	770.7226	-396.1396	1042.9451	733.8854	-393.5991	1092.9928	635.8404	-394.3523	1173.7097	530.8513	-508.3821	1149.4159	538.5555	-391.6313	1070.0633	396.3329	-394.3676	1008.9876	303.9357	-414.1936	1003.2406	444.3655	-403.1643	941.4344	349.1552	-412.7965	862.0482	214.6769	-423.3464	916.3582	201.2494	-507.1331	803.8458	223.5908	-493.4491	912.9216	109.5197	-381.7788	967.2502	78.526	-459.9366	1047.6106	770.3507	-747.7033	1046.7893	661.9233	-735.7597	964.1607	766.5889	-755.1476	967.1059	658.2792	-735.434	1026.6591	511.8854	-608.9995	1017.7604	517.5871	-720.0408	1006.8747	382.3506	-734.1348	925.1949	394.6233	-736.5612	911.7793	285.862	-728.1911	938.5421	81.1965	-719.9871	972.2462	93.4495	-623.4056	874.5696	43.7831	-662.4689	1045.2076	32.1541	-739.0345	1088.2918	44.9401	-641.2787	1007.1581	1474.629	-428.5624	973.7308	1459.4121	-751.0631	935.6668	1506.9581	-590.0627	894.264	1182.2853	-574.7655	1073.5745	1412.6484	-596.3384	1098.6987	1269.2504	-585.0096	860.6115	1415.241	-498.8919
